<?xml version="1.0" encoding="UTF-8" standalone="no"?>
<svg
   xmlns:dc="http://purl.org/dc/elements/1.1/"
   xmlns:cc="http://creativecommons.org/ns#"
   xmlns:rdf="http://www.w3.org/1999/02/22-rdf-syntax-ns#"
   xmlns:svg="http://www.w3.org/2000/svg"
   xmlns="http://www.w3.org/2000/svg"
   xmlns:sodipodi="http://sodipodi.sourceforge.net/DTD/sodipodi-0.dtd"
   xmlns:inkscape="http://www.inkscape.org/namespaces/inkscape"
   width="76.099976mm"
   height="59.999996mm"
   viewBox="0 0 76.099974 59.999995"
   version="1.1"
   id="svg25"
   inkscape:version="1.0.1 (3bc2e813f5, 2020-09-07)"
   sodipodi:docname="LogoDEF.svg">
  <defs
     id="defs19" />
  <sodipodi:namedview
     id="base"
     pagecolor="#ffffff"
     bordercolor="#666666"
     borderopacity="1.0"
     inkscape:pageopacity="0.0"
     inkscape:pageshadow="2"
     inkscape:zoom="1.75"
     inkscape:cx="157.98447"
     inkscape:cy="115.66288"
     inkscape:document-units="mm"
     inkscape:current-layer="layer1"
     inkscape:document-rotation="0"
     showgrid="false"
     showguides="true"
     inkscape:guide-bbox="true"
     inkscape:window-width="1920"
     inkscape:window-height="1000"
     inkscape:window-x="-11"
     inkscape:window-y="-11"
     inkscape:window-maximized="1"
     fit-margin-top="0"
     fit-margin-left="0"
     fit-margin-right="0"
     fit-margin-bottom="0">
    <sodipodi:guide
       position="304.57058,82.929847"
       orientation="1,0"
       id="guide903" />
    <sodipodi:guide
       position="213.40032,-94.868319"
       orientation="0,-1"
       id="guide922" />
  </sodipodi:namedview>
  <metadata
     id="metadata22">
    <rdf:RDF>
      <cc:Work
         rdf:about="">
        <dc:format>image/svg+xml</dc:format>
        <dc:type
           rdf:resource="http://purl.org/dc/dcmitype/StillImage" />
        <dc:title />
      </cc:Work>
    </rdf:RDF>
  </metadata>
  <g
     inkscape:label="Laag 1"
     inkscape:groupmode="layer"
     id="layer1"
     transform="translate(404.52428,73.594073)">
    <rect
       style="fill:#ffffff;fill-opacity:1;stroke:#ff0000;stroke-width:0.103384;stroke-opacity:1"
       id="rect882-7-7"
       width="33.897388"
       height="59.896614"
       x="-362.37338"
       y="-73.542381"
       ry="4.361609"
       rx="4.5252914" />
    <path
       style="fill:#0000ff;fill-opacity:1;stroke:none;stroke-width:0.202927"
       d="m -347.02442,-30.612525 4.51471,-0.03723 3.13192,-0.03723 3.76286,9.926214 v 0 l 6.01246,-0.120318 c 0,0 -5.05061,-14.63706 -5.23645,-14.850868 -0.0835,-0.09611 -0.76166,0.02816 -1.50697,0.276211 -0.74782,0.248851 -1.42867,0.372637 -1.51925,0.276205 -0.0903,-0.09611 -0.41107,-1.053894 -0.71285,-2.128403 l -0.5487,-1.953667 -1.62793,-0.09424 c -1.47486,-0.08538 -1.8589,-0.02023 -4.08426,0.692403 -2.66287,0.852785 -2.79967,0.922957 -4.5007,2.30846 -0.62945,0.512697 -1.1952,0.88143 -1.25722,0.819407 0.0972,-1.343133 1.09132,-3.587359 1.72313,-4.510661 1.33392,-1.111061 3.60855,-2.149433 5.45924,-2.822761 2.63083,-0.937849 3.51731,-1.332972 3.51731,-1.567742 0,-0.106422 -0.23534,-0.965055 -0.52297,-1.908067 -0.36721,-1.203882 -0.46089,-1.789375 -0.31454,-1.96572 0.11465,-0.13814 0.76091,-0.51522 1.43615,-0.837955 0.67524,-0.32273 1.23018,-0.684147 1.23322,-0.803132 l -7.00252,-20.276842 -15.30342,49.454604 h 5.87256 c 1.53359,-4.125772 3.53315,-9.144593 7.47422,-9.838679 z"
       id="path866-7"
       sodipodi:nodetypes="ccccccscsscscscccssssccccc" />
    <path
       style="fill:#0000ff;fill-opacity:1;stroke:none;stroke-width:0.0877438;stroke-opacity:1"
       d="m -396.54074,-22.260577 c -1.30325,-0.338888 -2.34991,-1.141303 -2.85224,-2.186691 l -0.28527,-0.593668 -0.0261,-21.864924 c -0.0192,-16.026315 5.6e-4,-22.004492 0.0741,-22.387591 0.2743,-1.431043 1.58619,-2.604572 3.31051,-2.961399 0.92787,-0.192004 26.20517,-0.192004 27.13305,0 1.41833,0.293503 2.69459,1.25242 3.15103,2.367558 l 0.20741,0.506731 0.0253,21.777812 c 0.0179,15.418266 -0.003,21.940327 -0.071,22.334335 -0.25175,1.455243 -1.42459,2.5834 -3.13244,3.013155 -0.77449,0.194878 -26.78366,0.189854 -27.53426,-0.0054 z m 6.17394,-5.432549 c 1.14353,-2.886883 2.11806,-4.547522 3.40362,-5.80014 0.62743,-0.611385 0.96292,-0.861931 1.50625,-1.125072 0.66443,-0.321756 0.7564,-0.341909 1.85598,-0.406622 1.97714,-0.116355 6.21315,-0.09502 6.2623,0.03154 0.0232,0.05988 0.66758,1.735692 1.43193,3.724007 0.76427,1.988314 1.50686,3.915773 1.6501,4.283242 l 0.26043,0.668128 2.71403,-0.04825 c 1.49271,-0.02653 2.72779,-0.05982 2.7446,-0.07399 0.0317,-0.02665 -0.32074,-1.041666 -2.37289,-6.832697 -1.67639,-4.730763 -2.21805,-6.209659 -2.32182,-6.339029 -0.10414,-0.129827 -0.39207,-0.09099 -1.47831,0.199491 -1.29743,0.346935 -1.19835,0.351842 -1.36881,-0.06781 -0.0826,-0.203266 -0.3399,-1.015053 -0.57192,-1.803969 l -0.42172,-1.434396 -0.29915,-0.07651 c -0.16454,-0.04206 -0.95543,-0.06026 -1.75744,-0.04042 l -1.45829,0.03611 -1.59093,0.500497 c -2.04894,0.644623 -2.77572,0.999824 -4.02126,1.965449 -0.55906,0.433355 -1.04624,0.788054 -1.08269,0.78822 -0.33568,0.0015 0.89114,-3.235942 1.4506,-3.82777 0.64271,-0.680003 2.69421,-1.712022 5.36442,-2.698651 2.13535,-0.78902 2.608,-1.018149 2.64662,-1.283064 0.0148,-0.101714 -0.13237,-0.728325 -0.327,-1.392471 -0.19462,-0.664146 -0.37994,-1.36854 -0.41182,-1.56532 -0.0684,-0.422239 -0.0275,-0.458926 1.24214,-1.113706 0.43746,-0.225627 0.89208,-0.482324 1.01017,-0.570435 l 0.21472,-0.160203 -3.12116,-8.916731 c -1.71671,-4.904204 -3.15295,-8.975535 -3.1917,-9.047397 -0.0626,-0.116151 -0.0759,-0.116151 -0.11933,0 -0.0269,0.07187 -3.11235,9.891481 -6.85665,21.821366 -3.74423,11.929887 -6.82983,21.759302 -6.85677,21.843146 -0.0459,0.1429 0.11915,0.152445 2.63623,0.152445 h 2.6852 z"
       id="path894" />
    <rect
       style="fill:none;stroke:#ff0000;stroke-width:0.273653;stroke-opacity:1"
       id="rect3958"
       width="35.611347"
       height="52.726345"
       x="-400.55972"
       y="-73.618416"
       ry="3.2489426" />
  </g>
</svg>
